<?xml version="1.0" encoding="utf-8"?>
<!DOCTYPE svg>
<svg xmlns="http://www.w3.org/2000/svg" width="2048" height="2048">
    <rect x="864" y="416" width="32" height="32" style="fill: rgb(7,7,7)" fill-opacity="1.000000"></rect>
    <rect x="896" y="416" width="32" height="32" style="fill: rgb(20,20,20)" fill-opacity="1.000000"></rect>
    <rect x="928" y="416" width="32" height="32" style="fill: rgb(28,28,28)" fill-opacity="1.000000"></rect>
    <rect x="960" y="416" width="32" height="32" style="fill: rgb(33,33,33)" fill-opacity="1.000000"></rect>
    <rect x="992" y="416" width="32" height="32" style="fill: rgb(42,42,42)" fill-opacity="1.000000"></rect>
    <rect x="1024" y="416" width="32" height="32" style="fill: rgb(42,42,42)" fill-opacity="1.000000"></rect>
    <rect x="1056" y="416" width="32" height="32" style="fill: rgb(42,42,42)" fill-opacity="1.000000"></rect>
    <rect x="1088" y="416" width="32" height="32" style="fill: rgb(42,42,42)" fill-opacity="1.000000"></rect>
    <rect x="1120" y="416" width="32" height="32" style="fill: rgb(42,42,42)" fill-opacity="1.000000"></rect>
    <rect x="1152" y="416" width="32" height="32" style="fill: rgb(42,42,42)" fill-opacity="1.000000"></rect>
    <rect x="800" y="448" width="32" height="32" style="fill: rgb(7,7,7)" fill-opacity="1.000000"></rect>
    <rect x="832" y="448" width="32" height="32" style="fill: rgb(7,7,7)" fill-opacity="1.000000"></rect>
    <rect x="864" y="448" width="32" height="32" style="fill: rgb(20,20,20)" fill-opacity="1.000000"></rect>
    <rect x="896" y="448" width="32" height="32" style="fill: rgb(28,28,28)" fill-opacity="1.000000"></rect>
    <rect x="928" y="448" width="32" height="32" style="fill: rgb(33,33,33)" fill-opacity="1.000000"></rect>
    <rect x="960" y="448" width="32" height="32" style="fill: rgb(42,42,42)" fill-opacity="1.000000"></rect>
    <rect x="992" y="448" width="32" height="32" style="fill: rgb(42,42,42)" fill-opacity="1.000000"></rect>
    <rect x="1024" y="448" width="32" height="32" style="fill: rgb(42,42,42)" fill-opacity="1.000000"></rect>
    <rect x="1056" y="448" width="32" height="32" style="fill: rgb(42,42,42)" fill-opacity="1.000000"></rect>
    <rect x="1088" y="448" width="32" height="32" style="fill: rgb(42,42,42)" fill-opacity="1.000000"></rect>
    <rect x="1120" y="448" width="32" height="32" style="fill: rgb(42,42,42)" fill-opacity="1.000000"></rect>
    <rect x="1152" y="448" width="32" height="32" style="fill: rgb(42,42,42)" fill-opacity="1.000000"></rect>
    <rect x="1184" y="448" width="32" height="32" style="fill: rgb(42,42,42)" fill-opacity="1.000000"></rect>
    <rect x="768" y="480" width="32" height="32" style="fill: rgb(7,7,7)" fill-opacity="1.000000"></rect>
    <rect x="800" y="480" width="32" height="32" style="fill: rgb(20,20,20)" fill-opacity="1.000000"></rect>
    <rect x="832" y="480" width="32" height="32" style="fill: rgb(20,20,20)" fill-opacity="1.000000"></rect>
    <rect x="864" y="480" width="32" height="32" style="fill: rgb(28,28,28)" fill-opacity="1.000000"></rect>
    <rect x="896" y="480" width="32" height="32" style="fill: rgb(33,33,33)" fill-opacity="1.000000"></rect>
    <rect x="928" y="480" width="32" height="32" style="fill: rgb(42,42,42)" fill-opacity="1.000000"></rect>
    <rect x="960" y="480" width="32" height="32" style="fill: rgb(42,42,42)" fill-opacity="1.000000"></rect>
    <rect x="992" y="480" width="32" height="32" style="fill: rgb(42,42,42)" fill-opacity="1.000000"></rect>
    <rect x="1024" y="480" width="32" height="32" style="fill: rgb(42,42,42)" fill-opacity="1.000000"></rect>
    <rect x="1056" y="480" width="32" height="32" style="fill: rgb(42,42,42)" fill-opacity="1.000000"></rect>
    <rect x="1088" y="480" width="32" height="32" style="fill: rgb(42,42,42)" fill-opacity="1.000000"></rect>
    <rect x="1120" y="480" width="32" height="32" style="fill: rgb(42,42,42)" fill-opacity="1.000000"></rect>
    <rect x="1152" y="480" width="32" height="32" style="fill: rgb(42,42,42)" fill-opacity="1.000000"></rect>
    <rect x="1184" y="480" width="32" height="32" style="fill: rgb(42,42,42)" fill-opacity="1.000000"></rect>
    <rect x="736" y="512" width="32" height="32" style="fill: rgb(7,7,7)" fill-opacity="1.000000"></rect>
    <rect x="768" y="512" width="32" height="32" style="fill: rgb(20,20,20)" fill-opacity="1.000000"></rect>
    <rect x="800" y="512" width="32" height="32" style="fill: rgb(28,28,28)" fill-opacity="1.000000"></rect>
    <rect x="832" y="512" width="32" height="32" style="fill: rgb(33,33,33)" fill-opacity="1.000000"></rect>
    <rect x="864" y="512" width="32" height="32" style="fill: rgb(42,42,42)" fill-opacity="1.000000"></rect>
    <rect x="896" y="512" width="32" height="32" style="fill: rgb(42,42,42)" fill-opacity="1.000000"></rect>
    <rect x="928" y="512" width="32" height="32" style="fill: rgb(42,42,42)" fill-opacity="1.000000"></rect>
    <rect x="960" y="512" width="32" height="32" style="fill: rgb(42,42,42)" fill-opacity="1.000000"></rect>
    <rect x="992" y="512" width="32" height="32" style="fill: rgb(42,42,42)" fill-opacity="1.000000"></rect>
    <rect x="1024" y="512" width="32" height="32" style="fill: rgb(42,42,42)" fill-opacity="1.000000"></rect>
    <rect x="1056" y="512" width="32" height="32" style="fill: rgb(42,42,42)" fill-opacity="1.000000"></rect>
    <rect x="1088" y="512" width="32" height="32" style="fill: rgb(42,42,42)" fill-opacity="1.000000"></rect>
    <rect x="1120" y="512" width="32" height="32" style="fill: rgb(42,42,42)" fill-opacity="1.000000"></rect>
    <rect x="1152" y="512" width="32" height="32" style="fill: rgb(42,42,42)" fill-opacity="1.000000"></rect>
    <rect x="1184" y="512" width="32" height="32" style="fill: rgb(42,42,42)" fill-opacity="1.000000"></rect>
    <rect x="736" y="544" width="32" height="32" style="fill: rgb(7,7,7)" fill-opacity="1.000000"></rect>
    <rect x="768" y="544" width="32" height="32" style="fill: rgb(20,20,20)" fill-opacity="1.000000"></rect>
    <rect x="800" y="544" width="32" height="32" style="fill: rgb(28,28,28)" fill-opacity="1.000000"></rect>
    <rect x="832" y="544" width="32" height="32" style="fill: rgb(33,33,33)" fill-opacity="1.000000"></rect>
    <rect x="864" y="544" width="32" height="32" style="fill: rgb(42,42,42)" fill-opacity="1.000000"></rect>
    <rect x="896" y="544" width="32" height="32" style="fill: rgb(42,42,42)" fill-opacity="1.000000"></rect>
    <rect x="928" y="544" width="32" height="32" style="fill: rgb(42,42,42)" fill-opacity="1.000000"></rect>
    <rect x="960" y="544" width="32" height="32" style="fill: rgb(42,42,42)" fill-opacity="1.000000"></rect>
    <rect x="992" y="544" width="32" height="32" style="fill: rgb(42,42,42)" fill-opacity="1.000000"></rect>
    <rect x="1024" y="544" width="32" height="32" style="fill: rgb(42,42,42)" fill-opacity="1.000000"></rect>
    <rect x="1056" y="544" width="32" height="32" style="fill: rgb(42,42,42)" fill-opacity="1.000000"></rect>
    <rect x="1088" y="544" width="32" height="32" style="fill: rgb(42,42,42)" fill-opacity="1.000000"></rect>
    <rect x="1120" y="544" width="32" height="32" style="fill: rgb(42,42,42)" fill-opacity="1.000000"></rect>
    <rect x="1152" y="544" width="32" height="32" style="fill: rgb(42,42,42)" fill-opacity="1.000000"></rect>
    <rect x="1184" y="544" width="32" height="32" style="fill: rgb(42,42,42)" fill-opacity="1.000000"></rect>
    <rect x="736" y="576" width="32" height="32" style="fill: rgb(7,7,7)" fill-opacity="1.000000"></rect>
    <rect x="768" y="576" width="32" height="32" style="fill: rgb(20,20,20)" fill-opacity="1.000000"></rect>
    <rect x="800" y="576" width="32" height="32" style="fill: rgb(28,28,28)" fill-opacity="1.000000"></rect>
    <rect x="832" y="576" width="32" height="32" style="fill: rgb(33,33,33)" fill-opacity="1.000000"></rect>
    <rect x="864" y="576" width="32" height="32" style="fill: rgb(42,42,42)" fill-opacity="1.000000"></rect>
    <rect x="896" y="576" width="32" height="32" style="fill: rgb(203,167,141)" fill-opacity="1.000000"></rect>
    <rect x="928" y="576" width="32" height="32" style="fill: rgb(203,167,141)" fill-opacity="1.000000"></rect>
    <rect x="960" y="576" width="32" height="32" style="fill: rgb(203,167,141)" fill-opacity="1.000000"></rect>
    <rect x="992" y="576" width="32" height="32" style="fill: rgb(203,167,141)" fill-opacity="1.000000"></rect>
    <rect x="1024" y="576" width="32" height="32" style="fill: rgb(203,167,141)" fill-opacity="1.000000"></rect>
    <rect x="1056" y="576" width="32" height="32" style="fill: rgb(203,167,141)" fill-opacity="1.000000"></rect>
    <rect x="1088" y="576" width="32" height="32" style="fill: rgb(203,167,141)" fill-opacity="1.000000"></rect>
    <rect x="1120" y="576" width="32" height="32" style="fill: rgb(203,167,141)" fill-opacity="1.000000"></rect>
    <rect x="1152" y="576" width="32" height="32" style="fill: rgb(203,167,141)" fill-opacity="1.000000"></rect>
    <rect x="1184" y="576" width="32" height="32" style="fill: rgb(42,42,42)" fill-opacity="1.000000"></rect>
    <rect x="736" y="608" width="32" height="32" style="fill: rgb(20,20,20)" fill-opacity="1.000000"></rect>
    <rect x="768" y="608" width="32" height="32" style="fill: rgb(28,28,28)" fill-opacity="1.000000"></rect>
    <rect x="800" y="608" width="32" height="32" style="fill: rgb(33,33,33)" fill-opacity="1.000000"></rect>
    <rect x="832" y="608" width="32" height="32" style="fill: rgb(42,42,42)" fill-opacity="1.000000"></rect>
    <rect x="864" y="608" width="32" height="32" style="fill: rgb(203,167,141)" fill-opacity="1.000000"></rect>
    <rect x="896" y="608" width="32" height="32" style="fill: rgb(225,186,155)" fill-opacity="1.000000"></rect>
    <rect x="928" y="608" width="32" height="32" style="fill: rgb(225,186,155)" fill-opacity="1.000000"></rect>
    <rect x="960" y="608" width="32" height="32" style="fill: rgb(225,186,155)" fill-opacity="1.000000"></rect>
    <rect x="992" y="608" width="32" height="32" style="fill: rgb(225,186,155)" fill-opacity="1.000000"></rect>
    <rect x="1024" y="608" width="32" height="32" style="fill: rgb(225,186,155)" fill-opacity="1.000000"></rect>
    <rect x="1056" y="608" width="32" height="32" style="fill: rgb(225,186,155)" fill-opacity="1.000000"></rect>
    <rect x="1088" y="608" width="32" height="32" style="fill: rgb(225,186,155)" fill-opacity="1.000000"></rect>
    <rect x="1120" y="608" width="32" height="32" style="fill: rgb(225,186,155)" fill-opacity="1.000000"></rect>
    <rect x="1152" y="608" width="32" height="32" style="fill: rgb(225,186,155)" fill-opacity="1.000000"></rect>
    <rect x="736" y="640" width="32" height="32" style="fill: rgb(20,20,20)" fill-opacity="1.000000"></rect>
    <rect x="768" y="640" width="32" height="32" style="fill: rgb(28,28,28)" fill-opacity="1.000000"></rect>
    <rect x="800" y="640" width="32" height="32" style="fill: rgb(33,33,33)" fill-opacity="1.000000"></rect>
    <rect x="832" y="640" width="32" height="32" style="fill: rgb(42,42,42)" fill-opacity="1.000000"></rect>
    <rect x="864" y="640" width="32" height="32" style="fill: rgb(203,167,141)" fill-opacity="1.000000"></rect>
    <rect x="896" y="640" width="32" height="32" style="fill: rgb(225,186,155)" fill-opacity="1.000000"></rect>
    <rect x="928" y="640" width="32" height="32" style="fill: rgb(225,186,155)" fill-opacity="1.000000"></rect>
    <rect x="960" y="640" width="32" height="32" style="fill: rgb(225,186,155)" fill-opacity="1.000000"></rect>
    <rect x="992" y="640" width="32" height="32" style="fill: rgb(225,186,155)" fill-opacity="1.000000"></rect>
    <rect x="1024" y="640" width="32" height="32" style="fill: rgb(225,186,155)" fill-opacity="1.000000"></rect>
    <rect x="1056" y="640" width="32" height="32" style="fill: rgb(225,186,155)" fill-opacity="1.000000"></rect>
    <rect x="1088" y="640" width="32" height="32" style="fill: rgb(225,186,155)" fill-opacity="1.000000"></rect>
    <rect x="1120" y="640" width="32" height="32" style="fill: rgb(225,186,155)" fill-opacity="1.000000"></rect>
    <rect x="1152" y="640" width="32" height="32" style="fill: rgb(225,186,155)" fill-opacity="1.000000"></rect>
    <rect x="736" y="672" width="32" height="32" style="fill: rgb(20,20,20)" fill-opacity="1.000000"></rect>
    <rect x="768" y="672" width="32" height="32" style="fill: rgb(28,28,28)" fill-opacity="1.000000"></rect>
    <rect x="800" y="672" width="32" height="32" style="fill: rgb(33,33,33)" fill-opacity="1.000000"></rect>
    <rect x="832" y="672" width="32" height="32" style="fill: rgb(42,42,42)" fill-opacity="1.000000"></rect>
    <rect x="864" y="672" width="32" height="32" style="fill: rgb(203,167,141)" fill-opacity="1.000000"></rect>
    <rect x="896" y="672" width="32" height="32" style="fill: rgb(225,186,155)" fill-opacity="1.000000"></rect>
    <rect x="928" y="672" width="32" height="32" style="fill: rgb(225,186,155)" fill-opacity="1.000000"></rect>
    <rect x="960" y="672" width="32" height="32" style="fill: rgb(225,186,155)" fill-opacity="1.000000"></rect>
    <rect x="992" y="672" width="32" height="32" style="fill: rgb(225,186,155)" fill-opacity="1.000000"></rect>
    <rect x="1024" y="672" width="32" height="32" style="fill: rgb(225,186,155)" fill-opacity="1.000000"></rect>
    <rect x="1056" y="672" width="32" height="32" style="fill: rgb(225,186,155)" fill-opacity="1.000000"></rect>
    <rect x="1088" y="672" width="32" height="32" style="fill: rgb(225,186,155)" fill-opacity="1.000000"></rect>
    <rect x="1120" y="672" width="32" height="32" style="fill: rgb(225,186,155)" fill-opacity="1.000000"></rect>
    <rect x="1152" y="672" width="32" height="32" style="fill: rgb(225,186,155)" fill-opacity="1.000000"></rect>
    <rect x="736" y="704" width="32" height="32" style="fill: rgb(20,20,20)" fill-opacity="1.000000"></rect>
    <rect x="768" y="704" width="32" height="32" style="fill: rgb(28,28,28)" fill-opacity="1.000000"></rect>
    <rect x="800" y="704" width="32" height="32" style="fill: rgb(33,33,33)" fill-opacity="1.000000"></rect>
    <rect x="832" y="704" width="32" height="32" style="fill: rgb(42,42,42)" fill-opacity="1.000000"></rect>
    <rect x="864" y="704" width="32" height="32" style="fill: rgb(203,167,141)" fill-opacity="1.000000"></rect>
    <rect x="896" y="704" width="32" height="32" style="fill: rgb(225,186,155)" fill-opacity="1.000000"></rect>
    <rect x="928" y="704" width="32" height="32" style="fill: rgb(225,186,155)" fill-opacity="1.000000"></rect>
    <rect x="960" y="704" width="32" height="32" style="fill: rgb(225,186,155)" fill-opacity="1.000000"></rect>
    <rect x="992" y="704" width="32" height="32" style="fill: rgb(225,186,155)" fill-opacity="1.000000"></rect>
    <rect x="1024" y="704" width="32" height="32" style="fill: rgb(225,186,155)" fill-opacity="1.000000"></rect>
    <rect x="1056" y="704" width="32" height="32" style="fill: rgb(225,186,155)" fill-opacity="1.000000"></rect>
    <rect x="1088" y="704" width="32" height="32" style="fill: rgb(225,186,155)" fill-opacity="1.000000"></rect>
    <rect x="1120" y="704" width="32" height="32" style="fill: rgb(225,186,155)" fill-opacity="1.000000"></rect>
    <rect x="1152" y="704" width="32" height="32" style="fill: rgb(225,186,155)" fill-opacity="1.000000"></rect>
    <rect x="736" y="736" width="32" height="32" style="fill: rgb(20,20,20)" fill-opacity="1.000000"></rect>
    <rect x="768" y="736" width="32" height="32" style="fill: rgb(28,28,28)" fill-opacity="1.000000"></rect>
    <rect x="800" y="736" width="32" height="32" style="fill: rgb(33,33,33)" fill-opacity="1.000000"></rect>
    <rect x="832" y="736" width="32" height="32" style="fill: rgb(42,42,42)" fill-opacity="1.000000"></rect>
    <rect x="864" y="736" width="32" height="32" style="fill: rgb(0,0,0)" fill-opacity="1.000000"></rect>
    <rect x="896" y="736" width="32" height="32" style="fill: rgb(15,15,15)" fill-opacity="1.000000"></rect>
    <rect x="928" y="736" width="32" height="32" style="fill: rgb(15,15,15)" fill-opacity="1.000000"></rect>
    <rect x="960" y="736" width="32" height="32" style="fill: rgb(15,15,15)" fill-opacity="1.000000"></rect>
    <rect x="992" y="736" width="32" height="32" style="fill: rgb(15,15,15)" fill-opacity="1.000000"></rect>
    <rect x="1024" y="736" width="32" height="32" style="fill: rgb(225,186,155)" fill-opacity="1.000000"></rect>
    <rect x="1056" y="736" width="32" height="32" style="fill: rgb(15,15,15)" fill-opacity="1.000000"></rect>
    <rect x="1088" y="736" width="32" height="32" style="fill: rgb(15,15,15)" fill-opacity="1.000000"></rect>
    <rect x="1120" y="736" width="32" height="32" style="fill: rgb(15,15,15)" fill-opacity="1.000000"></rect>
    <rect x="1152" y="736" width="32" height="32" style="fill: rgb(15,15,15)" fill-opacity="1.000000"></rect>
    <rect x="1184" y="736" width="32" height="32" style="fill: rgb(15,15,15)" fill-opacity="1.000000"></rect>
    <rect x="768" y="768" width="32" height="32" style="fill: rgb(0,0,0)" fill-opacity="1.000000"></rect>
    <rect x="800" y="768" width="32" height="32" style="fill: rgb(0,0,0)" fill-opacity="1.000000"></rect>
    <rect x="832" y="768" width="32" height="32" style="fill: rgb(0,0,0)" fill-opacity="1.000000"></rect>
    <rect x="864" y="768" width="32" height="32" style="fill: rgb(0,0,0)" fill-opacity="1.000000"></rect>
    <rect x="896" y="768" width="32" height="32" style="fill: rgb(225,186,155)" fill-opacity="1.000000"></rect>
    <rect x="928" y="768" width="32" height="32" style="fill: rgb(38,23,17)" fill-opacity="1.000000"></rect>
    <rect x="960" y="768" width="32" height="32" style="fill: rgb(225,186,155)" fill-opacity="1.000000"></rect>
    <rect x="992" y="768" width="32" height="32" style="fill: rgb(15,15,15)" fill-opacity="1.000000"></rect>
    <rect x="1024" y="768" width="32" height="32" style="fill: rgb(15,15,15)" fill-opacity="1.000000"></rect>
    <rect x="1056" y="768" width="32" height="32" style="fill: rgb(15,15,15)" fill-opacity="1.000000"></rect>
    <rect x="1088" y="768" width="32" height="32" style="fill: rgb(225,186,155)" fill-opacity="1.000000"></rect>
    <rect x="1120" y="768" width="32" height="32" style="fill: rgb(38,23,17)" fill-opacity="1.000000"></rect>
    <rect x="1152" y="768" width="32" height="32" style="fill: rgb(225,186,155)" fill-opacity="1.000000"></rect>
    <rect x="1184" y="768" width="32" height="32" style="fill: rgb(15,15,15)" fill-opacity="1.000000"></rect>
    <rect x="768" y="800" width="32" height="32" style="fill: rgb(194,160,134)" fill-opacity="1.000000"></rect>
    <rect x="800" y="800" width="32" height="32" style="fill: rgb(225,186,155)" fill-opacity="1.000000"></rect>
    <rect x="832" y="800" width="32" height="32" style="fill: rgb(42,42,42)" fill-opacity="1.000000"></rect>
    <rect x="864" y="800" width="32" height="32" style="fill: rgb(0,0,0)" fill-opacity="1.000000"></rect>
    <rect x="896" y="800" width="32" height="32" style="fill: rgb(225,186,155)" fill-opacity="1.000000"></rect>
    <rect x="928" y="800" width="32" height="32" style="fill: rgb(54,33,25)" fill-opacity="1.000000"></rect>
    <rect x="960" y="800" width="32" height="32" style="fill: rgb(225,186,155)" fill-opacity="1.000000"></rect>
    <rect x="992" y="800" width="32" height="32" style="fill: rgb(15,15,15)" fill-opacity="1.000000"></rect>
    <rect x="1024" y="800" width="32" height="32" style="fill: rgb(225,186,155)" fill-opacity="1.000000"></rect>
    <rect x="1056" y="800" width="32" height="32" style="fill: rgb(15,15,15)" fill-opacity="1.000000"></rect>
    <rect x="1088" y="800" width="32" height="32" style="fill: rgb(225,186,155)" fill-opacity="1.000000"></rect>
    <rect x="1120" y="800" width="32" height="32" style="fill: rgb(54,33,25)" fill-opacity="1.000000"></rect>
    <rect x="1152" y="800" width="32" height="32" style="fill: rgb(225,186,155)" fill-opacity="1.000000"></rect>
    <rect x="1184" y="800" width="32" height="32" style="fill: rgb(15,15,15)" fill-opacity="1.000000"></rect>
    <rect x="768" y="832" width="32" height="32" style="fill: rgb(194,160,134)" fill-opacity="1.000000"></rect>
    <rect x="800" y="832" width="32" height="32" style="fill: rgb(225,186,155)" fill-opacity="1.000000"></rect>
    <rect x="832" y="832" width="32" height="32" style="fill: rgb(194,160,134)" fill-opacity="1.000000"></rect>
    <rect x="864" y="832" width="32" height="32" style="fill: rgb(203,167,141)" fill-opacity="1.000000"></rect>
    <rect x="896" y="832" width="32" height="32" style="fill: rgb(15,15,15)" fill-opacity="1.000000"></rect>
    <rect x="928" y="832" width="32" height="32" style="fill: rgb(15,15,15)" fill-opacity="1.000000"></rect>
    <rect x="960" y="832" width="32" height="32" style="fill: rgb(15,15,15)" fill-opacity="1.000000"></rect>
    <rect x="992" y="832" width="32" height="32" style="fill: rgb(225,186,155)" fill-opacity="1.000000"></rect>
    <rect x="1024" y="832" width="32" height="32" style="fill: rgb(225,186,155)" fill-opacity="1.000000"></rect>
    <rect x="1056" y="832" width="32" height="32" style="fill: rgb(225,186,155)" fill-opacity="1.000000"></rect>
    <rect x="1088" y="832" width="32" height="32" style="fill: rgb(15,15,15)" fill-opacity="1.000000"></rect>
    <rect x="1120" y="832" width="32" height="32" style="fill: rgb(15,15,15)" fill-opacity="1.000000"></rect>
    <rect x="1152" y="832" width="32" height="32" style="fill: rgb(15,15,15)" fill-opacity="1.000000"></rect>
    <rect x="768" y="864" width="32" height="32" style="fill: rgb(194,160,134)" fill-opacity="1.000000"></rect>
    <rect x="800" y="864" width="32" height="32" style="fill: rgb(225,186,155)" fill-opacity="1.000000"></rect>
    <rect x="832" y="864" width="32" height="32" style="fill: rgb(194,160,134)" fill-opacity="1.000000"></rect>
    <rect x="864" y="864" width="32" height="32" style="fill: rgb(203,167,141)" fill-opacity="1.000000"></rect>
    <rect x="896" y="864" width="32" height="32" style="fill: rgb(225,186,155)" fill-opacity="1.000000"></rect>
    <rect x="928" y="864" width="32" height="32" style="fill: rgb(225,186,155)" fill-opacity="1.000000"></rect>
    <rect x="960" y="864" width="32" height="32" style="fill: rgb(225,186,155)" fill-opacity="1.000000"></rect>
    <rect x="992" y="864" width="32" height="32" style="fill: rgb(225,186,155)" fill-opacity="1.000000"></rect>
    <rect x="1024" y="864" width="32" height="32" style="fill: rgb(225,186,155)" fill-opacity="1.000000"></rect>
    <rect x="1056" y="864" width="32" height="32" style="fill: rgb(225,186,155)" fill-opacity="1.000000"></rect>
    <rect x="1088" y="864" width="32" height="32" style="fill: rgb(225,186,155)" fill-opacity="1.000000"></rect>
    <rect x="1120" y="864" width="32" height="32" style="fill: rgb(225,186,155)" fill-opacity="1.000000"></rect>
    <rect x="1152" y="864" width="32" height="32" style="fill: rgb(225,186,155)" fill-opacity="1.000000"></rect>
    <rect x="832" y="896" width="32" height="32" style="fill: rgb(194,160,134)" fill-opacity="1.000000"></rect>
    <rect x="864" y="896" width="32" height="32" style="fill: rgb(203,167,141)" fill-opacity="1.000000"></rect>
    <rect x="896" y="896" width="32" height="32" style="fill: rgb(225,186,155)" fill-opacity="1.000000"></rect>
    <rect x="928" y="896" width="32" height="32" style="fill: rgb(225,186,155)" fill-opacity="1.000000"></rect>
    <rect x="960" y="896" width="32" height="32" style="fill: rgb(225,186,155)" fill-opacity="1.000000"></rect>
    <rect x="992" y="896" width="32" height="32" style="fill: rgb(225,186,155)" fill-opacity="1.000000"></rect>
    <rect x="1024" y="896" width="32" height="32" style="fill: rgb(225,186,155)" fill-opacity="1.000000"></rect>
    <rect x="1056" y="896" width="32" height="32" style="fill: rgb(225,186,155)" fill-opacity="1.000000"></rect>
    <rect x="1088" y="896" width="32" height="32" style="fill: rgb(225,186,155)" fill-opacity="1.000000"></rect>
    <rect x="1120" y="896" width="32" height="32" style="fill: rgb(225,186,155)" fill-opacity="1.000000"></rect>
    <rect x="1152" y="896" width="32" height="32" style="fill: rgb(225,186,155)" fill-opacity="1.000000"></rect>
    <rect x="864" y="928" width="32" height="32" style="fill: rgb(194,160,134)" fill-opacity="1.000000"></rect>
    <rect x="896" y="928" width="32" height="32" style="fill: rgb(203,167,141)" fill-opacity="1.000000"></rect>
    <rect x="928" y="928" width="32" height="32" style="fill: rgb(225,186,155)" fill-opacity="1.000000"></rect>
    <rect x="960" y="928" width="32" height="32" style="fill: rgb(225,186,155)" fill-opacity="1.000000"></rect>
    <rect x="992" y="928" width="32" height="32" style="fill: rgb(225,186,155)" fill-opacity="1.000000"></rect>
    <rect x="1024" y="928" width="32" height="32" style="fill: rgb(225,186,155)" fill-opacity="1.000000"></rect>
    <rect x="1056" y="928" width="32" height="32" style="fill: rgb(225,186,155)" fill-opacity="1.000000"></rect>
    <rect x="1088" y="928" width="32" height="32" style="fill: rgb(225,186,155)" fill-opacity="1.000000"></rect>
    <rect x="1120" y="928" width="32" height="32" style="fill: rgb(225,186,155)" fill-opacity="1.000000"></rect>
    <rect x="896" y="960" width="32" height="32" style="fill: rgb(194,160,134)" fill-opacity="1.000000"></rect>
    <rect x="928" y="960" width="32" height="32" style="fill: rgb(203,167,141)" fill-opacity="1.000000"></rect>
    <rect x="960" y="960" width="32" height="32" style="fill: rgb(225,186,155)" fill-opacity="1.000000"></rect>
    <rect x="992" y="960" width="32" height="32" style="fill: rgb(225,186,155)" fill-opacity="1.000000"></rect>
    <rect x="1024" y="960" width="32" height="32" style="fill: rgb(225,186,155)" fill-opacity="1.000000"></rect>
    <rect x="1056" y="960" width="32" height="32" style="fill: rgb(225,186,155)" fill-opacity="1.000000"></rect>
    <rect x="1088" y="960" width="32" height="32" style="fill: rgb(225,186,155)" fill-opacity="1.000000"></rect>
    <rect x="896" y="992" width="32" height="32" style="fill: rgb(82,79,55)" fill-opacity="1.000000"></rect>
    <rect x="928" y="992" width="32" height="32" style="fill: rgb(82,79,55)" fill-opacity="1.000000"></rect>
    <rect x="960" y="992" width="32" height="32" style="fill: rgb(102,99,68)" fill-opacity="1.000000"></rect>
    <rect x="992" y="992" width="32" height="32" style="fill: rgb(225,186,155)" fill-opacity="1.000000"></rect>
    <rect x="1024" y="992" width="32" height="32" style="fill: rgb(225,186,155)" fill-opacity="1.000000"></rect>
    <rect x="1056" y="992" width="32" height="32" style="fill: rgb(225,186,155)" fill-opacity="1.000000"></rect>
    <rect x="1088" y="992" width="32" height="32" style="fill: rgb(102,99,68)" fill-opacity="1.000000"></rect>
    <rect x="864" y="1024" width="32" height="32" style="fill: rgb(82,79,55)" fill-opacity="1.000000"></rect>
    <rect x="896" y="1024" width="32" height="32" style="fill: rgb(102,99,68)" fill-opacity="1.000000"></rect>
    <rect x="928" y="1024" width="32" height="32" style="fill: rgb(102,99,68)" fill-opacity="1.000000"></rect>
    <rect x="960" y="1024" width="32" height="32" style="fill: rgb(102,99,68)" fill-opacity="1.000000"></rect>
    <rect x="992" y="1024" width="32" height="32" style="fill: rgb(102,99,68)" fill-opacity="1.000000"></rect>
    <rect x="1024" y="1024" width="32" height="32" style="fill: rgb(225,186,155)" fill-opacity="1.000000"></rect>
    <rect x="1056" y="1024" width="32" height="32" style="fill: rgb(102,99,68)" fill-opacity="1.000000"></rect>
    <rect x="1088" y="1024" width="32" height="32" style="fill: rgb(102,99,68)" fill-opacity="1.000000"></rect>
    <rect x="1120" y="1024" width="32" height="32" style="fill: rgb(102,99,68)" fill-opacity="1.000000"></rect>
    <rect x="832" y="1056" width="32" height="32" style="fill: rgb(82,79,55)" fill-opacity="1.000000"></rect>
    <rect x="864" y="1056" width="32" height="32" style="fill: rgb(102,99,68)" fill-opacity="1.000000"></rect>
    <rect x="896" y="1056" width="32" height="32" style="fill: rgb(102,99,68)" fill-opacity="1.000000"></rect>
    <rect x="928" y="1056" width="32" height="32" style="fill: rgb(102,99,68)" fill-opacity="1.000000"></rect>
    <rect x="960" y="1056" width="32" height="32" style="fill: rgb(102,99,68)" fill-opacity="1.000000"></rect>
    <rect x="992" y="1056" width="32" height="32" style="fill: rgb(102,99,68)" fill-opacity="1.000000"></rect>
    <rect x="1024" y="1056" width="32" height="32" style="fill: rgb(102,99,68)" fill-opacity="1.000000"></rect>
    <rect x="1056" y="1056" width="32" height="32" style="fill: rgb(102,99,68)" fill-opacity="1.000000"></rect>
    <rect x="1088" y="1056" width="32" height="32" style="fill: rgb(102,99,68)" fill-opacity="1.000000"></rect>
    <rect x="1120" y="1056" width="32" height="32" style="fill: rgb(102,99,68)" fill-opacity="1.000000"></rect>
    <rect x="832" y="1088" width="32" height="32" style="fill: rgb(82,79,55)" fill-opacity="1.000000"></rect>
    <rect x="864" y="1088" width="32" height="32" style="fill: rgb(102,99,68)" fill-opacity="1.000000"></rect>
    <rect x="896" y="1088" width="32" height="32" style="fill: rgb(102,99,68)" fill-opacity="1.000000"></rect>
    <rect x="928" y="1088" width="32" height="32" style="fill: rgb(102,99,68)" fill-opacity="1.000000"></rect>
    <rect x="960" y="1088" width="32" height="32" style="fill: rgb(102,99,68)" fill-opacity="1.000000"></rect>
    <rect x="992" y="1088" width="32" height="32" style="fill: rgb(102,99,68)" fill-opacity="1.000000"></rect>
    <rect x="1024" y="1088" width="32" height="32" style="fill: rgb(102,99,68)" fill-opacity="1.000000"></rect>
    <rect x="1056" y="1088" width="32" height="32" style="fill: rgb(102,99,68)" fill-opacity="1.000000"></rect>
    <rect x="1088" y="1088" width="32" height="32" style="fill: rgb(102,99,68)" fill-opacity="1.000000"></rect>
    <rect x="1120" y="1088" width="32" height="32" style="fill: rgb(102,99,68)" fill-opacity="1.000000"></rect>
    <rect x="832" y="1120" width="32" height="32" style="fill: rgb(82,79,55)" fill-opacity="1.000000"></rect>
    <rect x="864" y="1120" width="32" height="32" style="fill: rgb(102,99,68)" fill-opacity="1.000000"></rect>
    <rect x="896" y="1120" width="32" height="32" style="fill: rgb(82,79,55)" fill-opacity="1.000000"></rect>
    <rect x="928" y="1120" width="32" height="32" style="fill: rgb(102,99,68)" fill-opacity="1.000000"></rect>
    <rect x="960" y="1120" width="32" height="32" style="fill: rgb(102,99,68)" fill-opacity="1.000000"></rect>
    <rect x="992" y="1120" width="32" height="32" style="fill: rgb(102,99,68)" fill-opacity="1.000000"></rect>
    <rect x="1024" y="1120" width="32" height="32" style="fill: rgb(102,99,68)" fill-opacity="1.000000"></rect>
    <rect x="1056" y="1120" width="32" height="32" style="fill: rgb(102,99,68)" fill-opacity="1.000000"></rect>
    <rect x="1088" y="1120" width="32" height="32" style="fill: rgb(102,99,68)" fill-opacity="1.000000"></rect>
    <rect x="1120" y="1120" width="32" height="32" style="fill: rgb(102,99,68)" fill-opacity="1.000000"></rect>
    <rect x="832" y="1152" width="32" height="32" style="fill: rgb(194,160,134)" fill-opacity="1.000000"></rect>
    <rect x="864" y="1152" width="32" height="32" style="fill: rgb(225,186,155)" fill-opacity="1.000000"></rect>
    <rect x="896" y="1152" width="32" height="32" style="fill: rgb(82,79,55)" fill-opacity="1.000000"></rect>
    <rect x="928" y="1152" width="32" height="32" style="fill: rgb(102,99,68)" fill-opacity="1.000000"></rect>
    <rect x="960" y="1152" width="32" height="32" style="fill: rgb(102,99,68)" fill-opacity="1.000000"></rect>
    <rect x="992" y="1152" width="32" height="32" style="fill: rgb(102,99,68)" fill-opacity="1.000000"></rect>
    <rect x="1024" y="1152" width="32" height="32" style="fill: rgb(102,99,68)" fill-opacity="1.000000"></rect>
    <rect x="1056" y="1152" width="32" height="32" style="fill: rgb(102,99,68)" fill-opacity="1.000000"></rect>
    <rect x="1088" y="1152" width="32" height="32" style="fill: rgb(102,99,68)" fill-opacity="1.000000"></rect>
    <rect x="1120" y="1152" width="32" height="32" style="fill: rgb(225,186,155)" fill-opacity="1.000000"></rect>
    <rect x="832" y="1184" width="32" height="32" style="fill: rgb(194,160,134)" fill-opacity="1.000000"></rect>
    <rect x="864" y="1184" width="32" height="32" style="fill: rgb(225,186,155)" fill-opacity="1.000000"></rect>
    <rect x="896" y="1184" width="32" height="32" style="fill: rgb(82,79,55)" fill-opacity="1.000000"></rect>
    <rect x="928" y="1184" width="32" height="32" style="fill: rgb(102,99,68)" fill-opacity="1.000000"></rect>
    <rect x="960" y="1184" width="32" height="32" style="fill: rgb(102,99,68)" fill-opacity="1.000000"></rect>
    <rect x="992" y="1184" width="32" height="32" style="fill: rgb(102,99,68)" fill-opacity="1.000000"></rect>
    <rect x="1024" y="1184" width="32" height="32" style="fill: rgb(102,99,68)" fill-opacity="1.000000"></rect>
    <rect x="1056" y="1184" width="32" height="32" style="fill: rgb(102,99,68)" fill-opacity="1.000000"></rect>
    <rect x="1088" y="1184" width="32" height="32" style="fill: rgb(102,99,68)" fill-opacity="1.000000"></rect>
    <rect x="1120" y="1184" width="32" height="32" style="fill: rgb(225,186,155)" fill-opacity="1.000000"></rect>
    <rect x="832" y="1216" width="32" height="32" style="fill: rgb(194,160,134)" fill-opacity="1.000000"></rect>
    <rect x="864" y="1216" width="32" height="32" style="fill: rgb(225,186,155)" fill-opacity="1.000000"></rect>
    <rect x="896" y="1216" width="32" height="32" style="fill: rgb(82,79,55)" fill-opacity="1.000000"></rect>
    <rect x="928" y="1216" width="32" height="32" style="fill: rgb(102,99,68)" fill-opacity="1.000000"></rect>
    <rect x="960" y="1216" width="32" height="32" style="fill: rgb(102,99,68)" fill-opacity="1.000000"></rect>
    <rect x="992" y="1216" width="32" height="32" style="fill: rgb(102,99,68)" fill-opacity="1.000000"></rect>
    <rect x="1024" y="1216" width="32" height="32" style="fill: rgb(102,99,68)" fill-opacity="1.000000"></rect>
    <rect x="1056" y="1216" width="32" height="32" style="fill: rgb(102,99,68)" fill-opacity="1.000000"></rect>
    <rect x="1088" y="1216" width="32" height="32" style="fill: rgb(102,99,68)" fill-opacity="1.000000"></rect>
    <rect x="1120" y="1216" width="32" height="32" style="fill: rgb(225,186,155)" fill-opacity="1.000000"></rect>
    <rect x="832" y="1248" width="32" height="32" style="fill: rgb(194,160,134)" fill-opacity="1.000000"></rect>
    <rect x="864" y="1248" width="32" height="32" style="fill: rgb(225,186,155)" fill-opacity="1.000000"></rect>
    <rect x="896" y="1248" width="32" height="32" style="fill: rgb(82,79,55)" fill-opacity="1.000000"></rect>
    <rect x="928" y="1248" width="32" height="32" style="fill: rgb(102,99,68)" fill-opacity="1.000000"></rect>
    <rect x="960" y="1248" width="32" height="32" style="fill: rgb(102,99,68)" fill-opacity="1.000000"></rect>
    <rect x="992" y="1248" width="32" height="32" style="fill: rgb(102,99,68)" fill-opacity="1.000000"></rect>
    <rect x="1024" y="1248" width="32" height="32" style="fill: rgb(102,99,68)" fill-opacity="1.000000"></rect>
    <rect x="1056" y="1248" width="32" height="32" style="fill: rgb(102,99,68)" fill-opacity="1.000000"></rect>
    <rect x="1088" y="1248" width="32" height="32" style="fill: rgb(102,99,68)" fill-opacity="1.000000"></rect>
    <rect x="1120" y="1248" width="32" height="32" style="fill: rgb(225,186,155)" fill-opacity="1.000000"></rect>
    <rect x="832" y="1280" width="32" height="32" style="fill: rgb(194,160,134)" fill-opacity="1.000000"></rect>
    <rect x="864" y="1280" width="32" height="32" style="fill: rgb(225,186,155)" fill-opacity="1.000000"></rect>
    <rect x="896" y="1280" width="32" height="32" style="fill: rgb(18,18,18)" fill-opacity="1.000000"></rect>
    <rect x="928" y="1280" width="32" height="32" style="fill: rgb(41,41,41)" fill-opacity="1.000000"></rect>
    <rect x="960" y="1280" width="32" height="32" style="fill: rgb(41,41,41)" fill-opacity="1.000000"></rect>
    <rect x="992" y="1280" width="32" height="32" style="fill: rgb(41,41,41)" fill-opacity="1.000000"></rect>
    <rect x="1024" y="1280" width="32" height="32" style="fill: rgb(41,41,41)" fill-opacity="1.000000"></rect>
    <rect x="1056" y="1280" width="32" height="32" style="fill: rgb(41,41,41)" fill-opacity="1.000000"></rect>
    <rect x="1088" y="1280" width="32" height="32" style="fill: rgb(41,41,41)" fill-opacity="1.000000"></rect>
    <rect x="1120" y="1280" width="32" height="32" style="fill: rgb(225,186,155)" fill-opacity="1.000000"></rect>
    <rect x="832" y="1312" width="32" height="32" style="fill: rgb(194,160,134)" fill-opacity="1.000000"></rect>
    <rect x="864" y="1312" width="32" height="32" style="fill: rgb(225,186,155)" fill-opacity="1.000000"></rect>
    <rect x="896" y="1312" width="32" height="32" style="fill: rgb(18,18,18)" fill-opacity="1.000000"></rect>
    <rect x="928" y="1312" width="32" height="32" style="fill: rgb(41,41,41)" fill-opacity="1.000000"></rect>
    <rect x="1056" y="1312" width="32" height="32" style="fill: rgb(18,18,18)" fill-opacity="1.000000"></rect>
    <rect x="1088" y="1312" width="32" height="32" style="fill: rgb(41,41,41)" fill-opacity="1.000000"></rect>
    <rect x="1120" y="1312" width="32" height="32" style="fill: rgb(225,186,155)" fill-opacity="1.000000"></rect>
    <rect x="896" y="1344" width="32" height="32" style="fill: rgb(18,18,18)" fill-opacity="1.000000"></rect>
    <rect x="928" y="1344" width="32" height="32" style="fill: rgb(41,41,41)" fill-opacity="1.000000"></rect>
    <rect x="1056" y="1344" width="32" height="32" style="fill: rgb(18,18,18)" fill-opacity="1.000000"></rect>
    <rect x="1088" y="1344" width="32" height="32" style="fill: rgb(41,41,41)" fill-opacity="1.000000"></rect>
    <rect x="896" y="1376" width="32" height="32" style="fill: rgb(18,18,18)" fill-opacity="1.000000"></rect>
    <rect x="928" y="1376" width="32" height="32" style="fill: rgb(41,41,41)" fill-opacity="1.000000"></rect>
    <rect x="1056" y="1376" width="32" height="32" style="fill: rgb(18,18,18)" fill-opacity="1.000000"></rect>
    <rect x="1088" y="1376" width="32" height="32" style="fill: rgb(41,41,41)" fill-opacity="1.000000"></rect>
    <rect x="896" y="1408" width="32" height="32" style="fill: rgb(18,18,18)" fill-opacity="1.000000"></rect>
    <rect x="928" y="1408" width="32" height="32" style="fill: rgb(41,41,41)" fill-opacity="1.000000"></rect>
    <rect x="1056" y="1408" width="32" height="32" style="fill: rgb(18,18,18)" fill-opacity="1.000000"></rect>
    <rect x="1088" y="1408" width="32" height="32" style="fill: rgb(41,41,41)" fill-opacity="1.000000"></rect>
    <rect x="896" y="1440" width="32" height="32" style="fill: rgb(18,18,18)" fill-opacity="1.000000"></rect>
    <rect x="928" y="1440" width="32" height="32" style="fill: rgb(41,41,41)" fill-opacity="1.000000"></rect>
    <rect x="1056" y="1440" width="32" height="32" style="fill: rgb(18,18,18)" fill-opacity="1.000000"></rect>
    <rect x="1088" y="1440" width="32" height="32" style="fill: rgb(41,41,41)" fill-opacity="1.000000"></rect>
    <rect x="896" y="1472" width="32" height="32" style="fill: rgb(223,223,223)" fill-opacity="1.000000"></rect>
    <rect x="928" y="1472" width="32" height="32" style="fill: rgb(255,255,255)" fill-opacity="1.000000"></rect>
    <rect x="1056" y="1472" width="32" height="32" style="fill: rgb(223,223,223)" fill-opacity="1.000000"></rect>
    <rect x="1088" y="1472" width="32" height="32" style="fill: rgb(255,255,255)" fill-opacity="1.000000"></rect>
</svg>
